<svg id="Layer_1" data-name="Layer 1" xmlns="http://www.w3.org/2000/svg" viewBox="0 0 512 512"><defs><style>.cls-1{fill:#fff;}</style></defs><path class="cls-1" d="M454.9,198.31l-53.58-53.58a56.06,56.06,0,0,0-36.67-16.42c-26.26-1.41-78.87-2.54-136.12,5.73-71.68,10.37-127.91,32-167.12,64.29l-4.06,3.35L39.26,331.62a46.62,46.62,0,0,0,46.18,53.06H402.87a43.58,43.58,0,0,0,39.7-25.7c9.37-20.9,25.79-63.05,30.34-110.62A62.21,62.21,0,0,0,454.9,198.31ZM252.76,305.12H184.23V209.34h22.13V285.7h46.4Zm77.37-14.5a25.63,25.63,0,0,1-8,9,33.91,33.91,0,0,1-11.47,5,57.24,57.24,0,0,1-13.35,1.55,74.31,74.31,0,0,1-10.79-.81A77,77,0,0,1,275.7,303a84.58,84.58,0,0,1-10.19-3.71,57.18,57.18,0,0,1-9.11-5L266.12,275a19.2,19.2,0,0,0,3.5,2.56,52.35,52.35,0,0,0,7.36,3.78,74.78,74.78,0,0,0,9.78,3.37,40.9,40.9,0,0,0,10.92,1.49q11.74,0,11.74-7.15a6.08,6.08,0,0,0-1.75-4.46,16.82,16.82,0,0,0-4.86-3.17,53.52,53.52,0,0,0-7.35-2.63c-2.83-.81-5.92-1.7-9.24-2.69a79.24,79.24,0,0,1-11.47-4.39,30.25,30.25,0,0,1-8-5.46,20,20,0,0,1-4.72-7.15,26.42,26.42,0,0,1-1.55-9.44,30.2,30.2,0,0,1,2.83-13.36,28.88,28.88,0,0,1,7.69-9.78,33.6,33.6,0,0,1,11.27-6,44.72,44.72,0,0,1,13.56-2,51.36,51.36,0,0,1,9.84.95,74.16,74.16,0,0,1,9.31,2.43,66.81,66.81,0,0,1,8.3,3.37q3.84,1.89,7.08,3.78l-9.71,18.34a13.61,13.61,0,0,0-2.84-2,51,51,0,0,0-6.07-3.1,58.25,58.25,0,0,0-8-2.84,31.65,31.65,0,0,0-8.63-1.21q-11.87,0-11.87,8a6.3,6.3,0,0,0,1.28,4,11.3,11.3,0,0,0,3.78,2.91,35.06,35.06,0,0,0,6.27,2.36q3.78,1.08,8.77,2.42A115.61,115.61,0,0,1,315.76,252a33.41,33.41,0,0,1,9.38,5.53,22.34,22.34,0,0,1,5.93,8,27.75,27.75,0,0,1,2.09,11.33A28.44,28.44,0,0,1,330.13,290.62Z"/></svg>