<svg id="Layer_1" data-name="Layer 1" xmlns="http://www.w3.org/2000/svg" viewBox="0 0 512 512"><defs><style>.cls-1{fill:#fff;}</style></defs><path class="cls-1" d="M89.83,145.94l-9.94-7.43L11.36,253.09,79.89,368.6l9.94-8.37c-21.28-29.17-34.06-66.48-34.06-107.14S68.55,175.11,89.83,145.94Z"/><path class="cls-1" d="M256,83A173,173,0,1,0,429,256,173,173,0,0,0,256,83Zm0,323.9c-83.19,0-150.86-67.67-150.86-150.86S172.81,105.14,256,105.14,406.86,172.81,406.86,256,339.19,406.86,256,406.86Z"/><path class="cls-1" d="M256,120.14c-74.92,0-135.86,61-135.86,135.86S181.08,391.86,256,391.86,391.86,330.92,391.86,256,330.92,120.14,256,120.14Zm44.45,188.22H222V198.75h25.31v87.38h53.11Z"/></svg>