<svg id="Layer_1" data-name="Layer 1" xmlns="http://www.w3.org/2000/svg" viewBox="0 0 512 512"><defs><style>.cls-1{fill:#fff;}</style></defs><path class="cls-1" d="M220.18,228.77H200.62v26.17h20.24a8.29,8.29,0,0,0,6.74-3.71,15.21,15.21,0,0,0,2.84-9.51q0-5.94-3.24-9.44T220.18,228.77Z"/><path class="cls-1" d="M472.74,331.62,454.65,201.68l-4.06-3.35C411.38,166,355.15,144.41,283.47,134c-57.25-8.27-109.85-7.14-136.12-5.73a56.06,56.06,0,0,0-36.67,16.42L57.1,198.31a62.17,62.17,0,0,0-18,50.05c4.55,47.56,21,89.72,30.34,110.62a43.58,43.58,0,0,0,39.7,25.7H426.56a46.63,46.63,0,0,0,46.18-53.06Zm-239.33-26.5-18.35-30.89H200.62v30.89H178.5V209.34h43.17a27.82,27.82,0,0,1,12.48,2.84,33,33,0,0,1,9.91,7.42A34.54,34.54,0,0,1,250.6,230,30.8,30.8,0,0,1,253,241.72,33.09,33.09,0,0,1,248.78,258a29.35,29.35,0,0,1-11.46,11.47l21,35.61Zm102.45-14.5a25.54,25.54,0,0,1-8,9,33.86,33.86,0,0,1-11.46,5A57.39,57.39,0,0,1,303,306.2a74.52,74.52,0,0,1-10.79-.81A77.27,77.27,0,0,1,281.43,303a85.2,85.2,0,0,1-10.19-3.71,56.65,56.65,0,0,1-9.1-5L271.85,275a19,19,0,0,0,3.51,2.56,52.74,52.74,0,0,0,7.35,3.78,74.78,74.78,0,0,0,9.78,3.37,41,41,0,0,0,10.93,1.49q11.73,0,11.73-7.15a6,6,0,0,0-1.75-4.46,16.82,16.82,0,0,0-4.86-3.17,53.52,53.52,0,0,0-7.35-2.63c-2.83-.81-5.91-1.7-9.24-2.69a79.24,79.24,0,0,1-11.47-4.39,30.19,30.19,0,0,1-8-5.46,19.7,19.7,0,0,1-4.72-7.15,26.2,26.2,0,0,1-1.55-9.44A30.07,30.07,0,0,1,269,226.34a28.76,28.76,0,0,1,7.69-9.78,33.55,33.55,0,0,1,11.26-6,44.72,44.72,0,0,1,13.56-2,51.46,51.46,0,0,1,9.85.95,74,74,0,0,1,9.3,2.43,66.18,66.18,0,0,1,8.3,3.37c2.56,1.26,4.93,2.52,7.08,3.78l-9.71,18.34a13.42,13.42,0,0,0-2.83-2,51.8,51.8,0,0,0-6.07-3.1,58.74,58.74,0,0,0-8-2.84,31.78,31.78,0,0,0-8.64-1.21q-11.87,0-11.87,8a6.3,6.3,0,0,0,1.28,4,11.51,11.51,0,0,0,3.78,2.91,35.19,35.19,0,0,0,6.28,2.36q3.76,1.08,8.76,2.42A114.87,114.87,0,0,1,321.49,252a33.26,33.26,0,0,1,9.38,5.53,22.49,22.49,0,0,1,5.94,8,27.92,27.92,0,0,1,2.09,11.33A28.44,28.44,0,0,1,335.86,290.62Z"/></svg>