<svg id="Layer_1" data-name="Layer 1" xmlns="http://www.w3.org/2000/svg" viewBox="0 0 512 512"><defs><style>.cls-1{fill:#fff;}</style></defs><path class="cls-1" d="M147.89,425.31l-7.43,9.94L255,503.78l115.51-68.53-8.36-9.94C333,446.59,295.7,459.37,255,459.37S177.06,446.59,147.89,425.31Z"/><path class="cls-1" d="M256,83A173,173,0,1,0,429,256,173,173,0,0,0,256,83Zm0,323.9c-83.19,0-150.86-67.67-150.86-150.86S172.81,105.14,256,105.14,406.86,172.81,406.86,256,339.19,406.86,256,406.86Z"/><path class="cls-1" d="M262.57,221.05H240.15v30h23.19c3,0,5.57-1.41,7.73-4.25s3.25-6.47,3.25-10.9-1.24-8.14-3.71-10.82S265.45,221.05,262.57,221.05Z"/><path class="cls-1" d="M256,120.14c-74.92,0-135.86,61-135.86,135.86S181.08,391.86,256,391.86,391.86,330.92,391.86,256,330.92,120.14,256,120.14Zm21.72,188.41-21-35.4H240.15v35.4H214.8V198.79h49.47a31.9,31.9,0,0,1,14.3,3.24,37.94,37.94,0,0,1,11.36,8.51,40,40,0,0,1,7.5,11.9,35.48,35.48,0,0,1,2.7,13.45,38.09,38.09,0,0,1-4.79,18.71,33.24,33.24,0,0,1-5.64,7.49,33.86,33.86,0,0,1-7.5,5.65l24.12,40.81Z"/></svg>