<?xml version="1.0" encoding="utf-8"?>
<!-- Generator: Adobe Illustrator 25.3.1, SVG Export Plug-In . SVG Version: 6.00 Build 0)  -->
<svg version="1.1" id="Ebene_1" xmlns="http://www.w3.org/2000/svg" xmlns:xlink="http://www.w3.org/1999/xlink" x="0px" y="0px"
	 viewBox="0 0 1288.1 225.9" style="enable-background:new 0 0 1288.1 225.9;" xml:space="preserve">
<style type="text/css">
	.st0{display:none;}
	.st1{display:inline;opacity:0.2;}
	.st2{fill:#0097FE;}
	.st3{fill:#231F20;}
</style>
<g id="Alignment_lines" class="st0">
</g>
<g id="Protected_area" class="st0">
	<g class="st1">
		<path class="st2" d="M880.1,153c25.9,0,46.9-20.7,46.9-46.2V46.2C927,20.7,906,0,880.1,0H703.8c-25.8,0-46.7,20.7-46.7,46.2v60.6
			c0,25.5,21,46.2,46.7,46.2H880.1z M729.2,118.2c-10.1,0-18.2-8-18.2-18V51.5c0-9.9,8.1-18,18.2-18h125.6c10.1,0,18.2,8,18.2,18
			v48.7c0,9.9-8.1,18-18.2,18H729.2z"/>
	</g>
	<g class="st1">
		<path class="st2" d="M1431.1,349.2c0,25.9,20.7,46.9,46.2,46.9h60.6c25.5,0,46.2-21,46.2-46.9V172.8c0-25.8-20.7-46.7-46.2-46.7
			h-60.6c-25.5,0-46.2,21-46.2,46.7V349.2z M1465.9,198.2c0-10.1,8-18.2,18-18.2h48.7c9.9,0,18,8.1,18,18.2v125.6
			c0,10.1-8,18.2-18,18.2h-48.7c-9.9,0-18-8.1-18-18.2V198.2z"/>
	</g>
	<g class="st1">
		<path class="st2" d="M0,349.2C0,375.1,20.7,396,46.2,396h60.6c25.5,0,46.2-21,46.2-46.9V172.8c0-25.8-20.7-46.7-46.2-46.7H46.2
			C20.7,126.1,0,147,0,172.8V349.2z M34.9,198.2c0-10.1,8-18.2,18-18.2h48.7c9.9,0,18,8.1,18,18.2v125.6c0,10.1-8,18.2-18,18.2H52.8
			c-9.9,0-18-8.1-18-18.2V198.2H34.9z"/>
	</g>
	<g class="st1">
		<path class="st2" d="M880.1,522.1c25.9,0,46.9-20.7,46.9-46.2v-60.6c0-25.5-21-46.2-46.9-46.2H703.8c-25.8,0-46.7,20.7-46.7,46.2
			v60.6c0,25.5,21,46.2,46.7,46.2H880.1z M729.2,487.3c-10.1,0-18.2-8-18.2-18v-48.7c0-9.9,8.1-18,18.2-18h125.6
			c10.1,0,18.2,8,18.2,18v48.7c0,9.9-8.1,18-18.2,18H729.2z"/>
	</g>
</g>
<g id="linrob_logo">
	<g>
		<path class="st3" d="M586.5,110.3c3.5-5.6,11.6-9.8,18.1-9.4h77.8c3.5,0,6.4-2.9,6.4-6.4V74.4c0-3.6-2.9-6.4-6.4-6.4H586
			c-16.5-0.9-37.1,9.8-45.8,23.9l-83.9,119c-2,2.9-1.3,6.9,1.6,9c0.9,0.7,2.6,1.2,3.7,1.2H505c2.3,0.1,5.1-1.4,6.3-3.3L586.5,110.3z
			"/>
		<path class="st3" d="M939.2,221c25.9,0,46.9-20.7,46.9-46.2v-60.6c0-25.5-21-46.2-46.9-46.2H762.8c-25.8,0-46.7,20.7-46.7,46.2
			v60.6c0,25.5,21,46.2,46.7,46.2H939.2z M788.3,186.1c-10.1,0-18.2-8-18.2-18v-48.7c0-9.9,8.1-18,18.2-18h125.6
			c10.1,0,18.2,8,18.2,18v48.7c0,9.9-8.1,18-18.2,18H788.3z"/>
		<path class="st3" d="M1236.3,67.9h-169.2V11.4c0-3.6-2.9-6.4-6.5-6.4h-40.9c-3.6,0-6.5,2.9-6.5,6.4v163.3
			c0,25.6,21,46.3,47.4,46.3h176.3c25.2,0,46.2-20.7,46.2-46.3v-60.4C1283.1,88.7,1262.1,67.9,1236.3,67.9z M1229.1,168
			c0,9.9-8.1,18-18.2,18h-125.6c-10.1,0-18.2-8.1-18.2-18v-48.5c0-9.9,8.1-18,18.2-18h125.6c10.1,0,18.2,8.1,18.2,18V168z"/>
		<path class="st2" d="M372.2,217.7c1.2,2,4.1,3.5,6.4,3.3H422c3.6,0,6.4-2.9,6.4-6.4c0.1-1.1-0.5-2.8-1.1-3.7L343.7,90.8
			C335.4,77.4,316,67.2,300.2,68h-86.7c-25.6,0-46.4,20.8-46.4,46.4v100.2c0,3.6,2.9,6.4,6.4,6.4h41.1c3.6,0,6.4-2.9,6.4-6.4V119
			c0-10,8.1-18.1,18.1-18.1h40.8c6.6-0.4,14.8,3.9,18.2,9.6L372.2,217.7z"/>
		<path class="st2" d="M140,11.4c0-3.6-2.7-6.4-6-6.4H92c-3.3,0-6,2.9-6,6.4v23.1c0,3.6,2.7,6.4,6,6.4h42c3.3,0,6-2.9,6-6.4V11.4z"
			/>
		<path class="st2" d="M5,214.5c0,3.6,2.7,6.4,6,6.4h42c3.3,0,6-2.9,6-6.4V11.4C59,7.8,56.3,5,53,5H11c-3.3,0-6,2.9-6,6.4V214.5z"/>
		<path class="st2" d="M140,74.4c0-3.6-2.7-6.4-6-6.4H92c-3.3,0-6,2.9-6,6.4v140.1c0,3.6,2.7,6.4,6,6.4h42c3.3,0,6-2.9,6-6.4V74.4z"
			/>
	</g>
</g>
</svg>
