<?xml version="1.0" encoding="utf-8"?>
<!-- Generator: Adobe Illustrator 25.3.1, SVG Export Plug-In . SVG Version: 6.00 Build 0)  -->
<svg version="1.1" xmlns="http://www.w3.org/2000/svg" xmlns:xlink="http://www.w3.org/1999/xlink" x="0px" y="0px"
	 viewBox="0 0 1584.11 522.11" style="enable-background:new 0 0 1584.11 522.11;" xml:space="preserve">
<style type="text/css">
	.st0{display:none;}
	.st1{display:inline;opacity:0.2;}
	.st2{fill:#FFFFFF;}
</style>
<g id="Alignment_lines" class="st0">
</g>
<g id="Protected_area" class="st0">
	<g class="st1">
		<path class="st2" d="M880.15,153.04c25.93,0,46.88-20.68,46.88-46.2V46.2c0-25.52-20.95-46.2-46.88-46.2H703.79
			c-25.76,0-46.72,20.69-46.72,46.2v60.64c0,25.52,20.95,46.2,46.72,46.2H880.15z M729.21,118.18c-10.05,0-18.2-8.04-18.2-17.97
			V51.52c0-9.92,8.15-17.97,18.2-17.97h125.6c10.05,0,18.2,8.04,18.2,17.97v48.69c0,9.92-8.15,17.97-18.2,17.97H729.21z"/>
	</g>
	<g class="st1">
		<path class="st2" d="M1431.07,349.15c0,25.93,20.68,46.88,46.2,46.88h60.64c25.52,0,46.2-20.95,46.2-46.88V172.79
			c0-25.76-20.69-46.72-46.2-46.72h-60.64c-25.52,0-46.2,20.95-46.2,46.72V349.15z M1465.93,198.21c0-10.05,8.04-18.2,17.97-18.2
			h48.69c9.92,0,17.97,8.15,17.97,18.2v125.6c0,10.05-8.04,18.2-17.97,18.2h-48.69c-9.92,0-17.97-8.15-17.97-18.2V198.21z"/>
	</g>
	<g class="st1">
		<path class="st2" d="M0,349.15c0,25.93,20.68,46.88,46.2,46.88h60.64c25.52,0,46.2-20.95,46.2-46.88V172.79
			c0-25.76-20.69-46.72-46.2-46.72H46.2c-25.52,0-46.2,20.95-46.2,46.72V349.15z M34.86,198.21c0-10.05,8.04-18.2,17.97-18.2h48.69
			c9.92,0,17.97,8.15,17.97,18.2v125.6c0,10.05-8.04,18.2-17.97,18.2H52.83c-9.92,0-17.97-8.15-17.97-18.2V198.21z"/>
	</g>
	<g class="st1">
		<path class="st2" d="M880.15,522.12c25.93,0,46.88-20.68,46.88-46.2v-60.64c0-25.52-20.95-46.2-46.88-46.2H703.79
			c-25.76,0-46.72,20.69-46.72,46.2v60.64c0,25.52,20.95,46.2,46.72,46.2H880.15z M729.21,487.26c-10.05,0-18.2-8.04-18.2-17.97
			V420.6c0-9.92,8.15-17.97,18.2-17.97h125.6c10.05,0,18.2,8.04,18.2,17.97v48.69c0,9.92-8.15,17.97-18.2,17.97H729.21z"/>
	</g>
</g>
<g id="linrob_logo">
	<g>
		<path class="st2" d="M734.5,258.45c3.46-5.57,11.6-9.8,18.15-9.45l77.81,0c3.55-0.02,6.41-2.9,6.41-6.45v-20.07
			c0-3.56-2.89-6.45-6.45-6.45h-96.39c-16.54-0.9-37.09,9.8-45.85,23.87l-83.88,119.03c-2.04,2.92-1.33,6.94,1.58,8.98
			c0.88,0.69,2.58,1.23,3.7,1.17h43.41c2.29,0.12,5.13-1.35,6.34-3.3L734.5,258.45z"/>
		<path class="st2" d="M1087.2,369.08c25.93,0,46.88-20.68,46.88-46.2v-60.64c0-25.52-20.95-46.2-46.88-46.2H910.84
			c-25.76,0-46.72,20.69-46.72,46.2v60.64c0,25.52,20.95,46.2,46.72,46.2H1087.2z M936.26,334.22c-10.05,0-18.2-8.04-18.2-17.97
			v-48.69c0-9.92,8.15-17.97,18.2-17.97h125.6c10.05,0,18.2,8.04,18.2,17.97v48.69c0,9.92-8.15,17.97-18.2,17.97H936.26z"/>
		<path class="st2" d="M1384.27,216.04l-169.23-0.02v-56.54c0-3.55-2.91-6.43-6.5-6.43h-40.92c-3.59,0-6.5,2.88-6.5,6.43v163.28
			c0,25.58,20.95,46.32,47.44,46.32h176.35c25.2,0,46.15-20.74,46.15-46.32v-60.39C1431.07,236.78,1410.11,216.04,1384.27,216.04z
			 M1377.08,316.11c0,9.95-8.15,18.01-18.2,18.01h-125.64c-10.05,0-18.2-8.07-18.2-18.01v-48.5c0-9.95,8.15-18.01,18.2-18.01h125.64
			c10.05,0,18.2,8.07,18.2,18.01V316.11z"/>
		<path class="st2" d="M520.22,365.76c1.21,1.96,4.06,3.46,6.36,3.34H570c3.56,0,6.45-2.89,6.45-6.45c0.06-1.11-0.46-2.8-1.15-3.67
			l-83.62-120.15c-8.26-13.43-27.75-23.65-43.49-22.8h-86.72c-25.64,0-46.43,20.79-46.43,46.43v100.18c0,3.56,2.89,6.45,6.45,6.45
			h41.1c3.56,0,6.45-2.89,6.45-6.45v-95.57c0-9.97,8.08-18.06,18.06-18.06h40.76c6.59-0.36,14.76,3.93,18.22,9.55L520.22,365.76z"/>
		<path class="st2" d="M287.96,159.49c0-3.56-2.68-6.45-6-6.45h-41.92c-3.31,0-6,2.89-6,6.45v23.11c0,3.56,2.68,6.45,6,6.45h41.92
			c3.31,0,6-2.89,6-6.45V159.49z"/>
		<path class="st2" d="M153.04,362.63c0,3.56,2.68,6.45,6,6.45h42.01c3.31,0,6-2.89,6-6.45V159.49c0-3.56-2.68-6.45-6-6.45h-42.01
			c-3.31,0-6,2.89-6,6.45V362.63z"/>
		<path class="st2" d="M287.96,222.49c0-3.56-2.68-6.45-6-6.45h-41.92c-3.31,0-6,2.89-6,6.45v140.14c0,3.56,2.68,6.45,6,6.45h41.92
			c3.31,0,6-2.89,6-6.45V222.49z"/>
	</g>
</g>
</svg>
